<?xml version="1.0" encoding="utf-8"?>
<!-- Generator: Adobe Illustrator 26.2.1, SVG Export Plug-In . SVG Version: 6.00 Build 0)  -->
<svg version="1.1" id="Layer_1" xmlns="http://www.w3.org/2000/svg" xmlns:xlink="http://www.w3.org/1999/xlink" x="0px" y="0px"
	 viewBox="0 0 277.87 386.68" style="enable-background:new 0 0 277.87 386.68;" xml:space="preserve">
<style type="text/css">
	.st0{fill-rule:evenodd;clip-rule:evenodd;fill:#FFFFFF;}
</style>
<path class="st0" d="M79.12,0c-0.35,6.75-3.15,12.79-5.01,19.43c-1.8,6.42-3.46,13.31-5.02,20.06c-4.06,17.58-7.86,34.89-7.52,57.66
	c13.87,2.68,31.36,0.69,43.87-1.88c6.84,4.44,11.23,11.33,17.55,16.29c-1.19-8.5,4.51-10.12,9.4-12.53
	c-2.17,3.68-5.54,6.16-4.39,13.16c2.85,1.9,3.31-3.14,5.64-3.76c3.23,3.67,7.32,3.48,10.65,0c2.4,0.53,1.75,4.1,4.39,4.39
	c3.72-4.87-1.59-10.15-3.14-13.79c4.65,2.46,9.95,4.26,9.4,11.91c5.06-3.09,11.23-10.49,16.29-15.67
	c13.05,2.75,29.75,4.03,45.12,2.51c-0.51-38.13-9.77-67.52-18.8-97.14c2.51-0.32,2.48,2.98,3.13,4.39
	c9.33,20.17,17.62,43.2,24.44,67.69c0.99,3.56,2.66,8.4,3.76,13.16c0.96,4.17,3,11.44,2.51,13.79c-1.07,5.14-9.56,6.87-11.28,11.28
	c-5.22-6.16-20.25-4.39-34.47-5.01c-4.03-0.18-9.43-1.33-11.91-0.63c-5.46,1.56-7.85,9.54-10.65,13.79
	c7.72,0.53,13.82-6.95,20.68-7.52c4.35-0.36,10.71,2.91,16.29,4.39c16.16,4.28,34.18,7.89,48.89,12.53
	c0.89-50.4-12.06-92.39-29.46-126.6c17.29,23.86,28.94,51.79,37.6,84.61c1.5,5.67,2.78,11.08,3.76,16.92
	c1.37,8.21,1.43,18.35,5.64,24.44c-5.2,5.67-11.45,10.27-16.92,15.67c-15.4-9.18-45.15-22.43-70.19-20.06
	c-5.99,0.57-11.29,3.56-15.67,7.52c7.65,3.06,12.95,3.35,23.19,3.13c2.55-0.05,6.23-1.11,8.15-0.63c2.18,0.55,5.67,5.04,8.77,8.15
	c18.1,18.1,34.29,31.36,55.78,45.75c6.71,4.5,10.49,9.07,18.17,3.13c1.27,59.48-14.53,103.38-33.84,143.52
	c-2.25,4.67-3.68,10.12-7.52,13.79c14.53-34.28,25.69-75.06,25.69-122.83c0-5.02,0.96-11.25,0-15.67
	c-1.36-6.27-11.22-12.91-16.92-18.18c-16.2-14.95-29.08-25.44-47-39.48c-3.51-2.75-6.5-6.47-9.4-7.52
	c-3.05-1.11-7.87-1.34-11.28-1.88c-4.27-0.68-8.38-0.86-11.91-1.25c6.93,7.44,17.92,16.68,27.58,23.82c1.76,1.58,3.6-0.56,5.64-0.63
	c2.29,69.86-2.89,138.29-22.56,189.27c-4.7,12.17-9.9,24.12-18.17,33.22c26.72-48.25,28.73-131.08,23.19-203.68
	c5.68-4.93,3.21-9.01-1.88-15.04c-5.57-6.59-15.46-16.2-21.93-19.43c-0.46,3.27,0.66,6.46,1.88,9.4c1.22,2.95,3.94,5.5,4.39,8.15
	c0.95,5.62-1.34,17.92-2.51,24.44c-3.88,21.62-12.05,45.36-19.43,61.42c-2.6-0.32-0.78-5.07-2.51-6.26
	c-2.78,0.14-1.1,4.75-2.51,6.26c-8.63-14.72-16-39.09-20.05-61.42c-1.45-7.98-3.7-17.58-2.51-24.44c0.95-5.45,6.82-10.39,6.27-16.92
	c-5.74,1.32-11.09,7.02-15.67,11.91c-4.56,4.87-9.3,10.11-12.53,15.67c0.39,2.75,3.06,3.21,3.76,5.64
	c-4.11,73.46-3.97,156.15,23.81,203.68c-2.93-0.4-4.29-4.11-5.64-6.27C88.35,338.41,81.39,274.61,78.5,208.7
	c-0.64-14.56-1.3-28.81,0.63-43.24c0.53-3.03,3.75,1.46,5.64-0.63c9.89-7.45,18.8-15.88,28.2-23.82
	c-8.19,1.26-17.08,0.85-24.44,3.76c-6.39,2.52-13.38,9.49-19.43,14.41c-18.4,14.98-37.78,31.26-53.27,48.26
	c-3.16,55.93,9.65,100.99,25.07,140.38C18.64,304.46-2,256.22,0.16,190.52c8.47,8.04,21.39-5.04,28.2-10.03
	c18.98-13.88,39.24-31.79,53.9-47c10.62,1.56,23.08,0.3,31.96-1.88c-11.07-14.13-39.46-7.04-56.41-1.88
	c-11.38,3.46-21.99,8.43-28.83,13.79c-6.51-4.36-11.48-10.24-17.55-15.04c4.44-11.15,5.38-29.87,8.77-42.62
	C28.49,54.74,41.42,27.2,57.19,1.88c-0.42,4.81-3.75,8.96-5.64,13.16C37.81,45.59,28.77,83.46,28.36,127.85
	c14.48-3.29,31.77-7.33,48.88-11.91c5.58-1.49,11.36-4.54,15.67-4.39c6.97,0.25,13.51,7.44,21.31,7.52
	c-1.85-5.88-5.39-10.07-9.4-13.79c-12.91,1.48-27.33-0.84-38.86,1.25c-1.18,0.21-2.72,0.9-4.39,1.88c0.15-0.09-3.72,2.5-3.13,2.51
	c-2.61-0.02-8.97-9.07-11.91-10.03C52.56,62.43,66.15,31.52,79.12,0z"/>
</svg>
